<svg id="Layer_1" xmlns="http://www.w3.org/2000/svg" viewBox="0 0 195.9 44.1"><style>.st0{fill:#31a2e8}.st1{opacity:.5;fill:url(#path-2_1_)}.st1,.st2{enable-background:new}</style><g id="Group_129" transform="translate(-7860 -4)"><g id="group-34" transform="translate(30.4 17.997)"><path id="path" class="st0" d="M7848.4-14c-3.1-.2-2.9 2-.6 2.4h.1c5.3.9 9.8 5 9.8 10.6 0 5.9-4.7 10.6-10.6 10.6-2.4 0-4.7-.8-6.6-2.3l-1 5.2 3.5 6.6 10.9.4h.8c8.8-4.2 12.5-14.6 8.3-23.4-2.7-5.8-8.3-9.6-14.6-10.1z"/><linearGradient id="path-2_1_" gradientUnits="userSpaceOnUse" x1="7580.283" y1="381.699" x2="7579.633" y2="382.548" gradientTransform="matrix(25.1961 0 0 -33.457 -183134.656 12787.718)"><stop offset="0" stop-color="#fff"/><stop offset="1"/></linearGradient><path id="path-2" class="st1" d="M7848.4-14c-3.1-.2-2.9 2-.6 2.4h.1c5.3.9 9.8 5 9.8 10.6 0 5.9-4.7 10.6-10.6 10.6-2.4 0-4.7-.8-6.6-2.3l-1 5.2 3.5 6.6 10.9.4h.8c8.8-4.2 12.5-14.6 8.3-23.4-2.7-5.8-8.3-9.6-14.6-10.1z"/><path id="path-3" class="st0" d="M7856.8 18.2c-8.5 4.2-20-4.3-9.7-14.7 10.3-10.4-5.9-22.4-14.7-9.7-5.4 8.1-3.1 19 5 24.4 5.9 3.9 13.6 3.9 19.4 0z"/><path id="group" transform="translate(44.787 5.052)" d="M7829.6-14h4.7v4h-4.7v-4zm.1 5.8h4.5V7.7h-4.5V-8.2zm7.3 0h4.5V-6c1-1.6 2.8-2.5 4.7-2.6 1.9-.1 3.6.9 4.5 2.5 1.3-1.6 3.2-2.5 5.2-2.5 3.4 0 5.4 2 5.4 5.8V7.7h-4.5v-8.9c0-2.1-.9-3.2-2.6-3.2-1.7 0-2.7 1.1-2.7 3.2v8.9h-4.5v-8.9c0-2.1-.9-3.2-2.6-3.2-1.7 0-2.7 1.1-2.7 3.2v8.9h-4.5l-.2-15.9zm25.9 11.3c0-3.5 2.6-5.1 6.4-5.1 1.3 0 2.6.2 3.9.7v-.3c0-1.9-1.2-2.9-3.4-2.9-1.5 0-3 .3-4.4.9l-1.1-3.5c1.9-.9 4-1.3 6.2-1.3 2-.1 3.9.5 5.4 1.8 1.2 1.4 1.9 3.2 1.7 5.1v9.2h-4.4V5.9c-1.2 1.4-3 2.1-4.8 2-3 .1-5.5-1.7-5.5-4.8zm10.4-1.1v-.8c-.9-.4-1.9-.6-2.9-.6-1.9 0-3.1.8-3.1 2.2v.1c0 1.2 1 1.9 2.5 1.9 2 0 3.5-1.1 3.5-2.8zm6.7 8.8l1.5-3.4c1.6 1 3.5 1.5 5.4 1.5 3.1 0 4.5-1.5 4.5-4.3v-.8c-1.2 1.7-3.1 2.6-5.2 2.6-3.7 0-7.1-2.7-7.1-7.4v-.1c-.2-3.9 2.7-7.2 6.6-7.4h.5c2 0 3.9.8 5.1 2.4v-2.1h4.5V4.1c0 2.8-.7 4.9-2 6.3-1.5 1.5-3.8 2.1-6.9 2.1-2.3 0-4.7-.6-6.9-1.7zm11.4-11.9c-.1-2.2-1.9-3.8-4.1-3.7-2 .1-3.6 1.7-3.7 3.7v.1c0 2 1.6 3.7 3.6 3.7h.3c2 .1 3.8-1.4 3.9-3.4v-.4zm6.4.9c0-4.6 3.2-8.3 7.9-8.3 5.3 0 7.7 4.1 7.7 8.6 0 .4 0 .8-.1 1.2h-11.1c.3 1.9 2 3.2 3.9 3.1 1.5 0 2.9-.6 3.9-1.6l2.6 2.3c-3 3.5-8.3 4-11.8 1-1.9-1.6-3-3.9-3-6.3zm11.2-1.3c-.3-2-1.5-3.4-3.4-3.4s-3.1 1.3-3.4 3.4h6.8zm4.9 7.1l1.9-3c1.4 1.1 3.2 1.8 5 1.9 1.3 0 1.9-.5 1.9-1.2v-.1c0-1-1.5-1.3-3.3-1.8-2.2-.7-4.7-1.7-4.7-4.8v-.1c0-3.2 2.6-5 5.8-5 2.1 0 4.2.7 5.9 1.8l-1.7 3.1c-1.3-.8-2.8-1.3-4.3-1.5-1.1 0-1.7.5-1.7 1.1v.1c0 .9 1.5 1.3 3.2 1.9 2.2.7 4.8 1.8 4.8 4.7v.1c0 3.5-2.6 5.1-6.1 5.1-2.4 0-4.8-.8-6.7-2.3zm14.8-19.6h4.5v8c1-1.6 2.8-2.5 4.7-2.6 3.4 0 5.4 2.3 5.4 5.9V7.7h-4.5v-8.9c0-2.1-1-3.2-2.7-3.2s-2.8 1.1-2.8 3.2v8.9h-4.5l-.1-21.7zm16.2 13.8c.2-4.8 4.2-8.5 9-8.3 4.5.2 8.1 3.7 8.3 8.2v.1c-.2 4.8-4.2 8.5-9 8.3-4.5-.3-8-3.8-8.3-8.3zm12.8 0c.1-2.4-1.7-4.3-4.1-4.4h-.1c-2.3 0-4.1 1.8-4.1 4v.4c-.1 2.3 1.7 4.3 4.1 4.4h.1c2.2 0 4.1-1.8 4.1-4v-.4zm6.3-8h4.5V-6c1.1-1.6 3-2.6 5-2.6 3.7 0 7.2 2.9 7.2 8.2v.1c0 5.3-3.5 8.2-7.2 8.2-1.9 0-3.8-.8-5-2.4v6.8h-4.5V-8.2zm12.2 7.9c0-2.7-1.8-4.4-3.9-4.4s-3.9 1.7-3.9 4.4v.1c0 2.6 1.7 4.4 3.9 4.4s3.9-1.8 3.9-4.5z"/></g><path class="st2" d="M7904.5 39.8h1.7c1.3 0 2 .7 2 1.7 0 .9-.6 1.2-.7 1.2.1 0 1.1.3 1.1 1.5 0 1.1-.8 1.8-2.1 1.8h-2v-6.2zm1.7 2.7c.7 0 1.1-.4 1.1-1s-.4-1-1.1-1h-1v2h1zm1.5 1.8c0-.6-.4-1.1-1.3-1.1h-1.2v2.2h1.2c.9 0 1.3-.5 1.3-1.1zm2.1-4.2c.3 0 .5.2.5.5s-.2.5-.5.5-.5-.2-.5-.5c0-.2.3-.5.5-.5zm-.3 1.9h.8v4.2h-.8V42zm2.1-2.7h.8v6.8h-.8v-6.8zm5.1 3.2v-3.2h.8v6.8h-.7v-.6s-.4.7-1.4.7c-1.1 0-2-1-2-2.2 0-1.2.9-2.2 2-2.2.9.1 1.3.7 1.3.7zm0 .8s-.4-.7-1.2-.7c-.8 0-1.4.7-1.4 1.5s.5 1.5 1.4 1.5c.8 0 1.2-.7 1.2-.7v-1.6zm5.9.8v.2h-3.4c0 .6.6 1.2 1.4 1.2.8 0 1.3-.6 1.3-.6l.5.5s-.6.8-1.7.8c-1.3 0-2.2-1-2.2-2.2 0-1.2.8-2.2 2.1-2.2 1.1.1 2 .9 2 2.3zm-.8-.4c0-.5-.5-1.1-1.3-1.1-.9 0-1.3.7-1.3 1.1h2.6zm5.9.3c0 1.2-.9 2.2-2 2.2-1 0-1.4-.7-1.4-.7v.6h-.7v-6.8h.8v3.2s.4-.6 1.3-.6c1.1 0 2 .9 2 2.1zm-3.4.8s.4.7 1.2.7c.8 0 1.4-.7 1.4-1.5s-.5-1.5-1.4-1.5-1.2.7-1.2.7v1.6zm7.7-1.4v2.7h-.7v-.6s-.5.7-1.4.7c-.7 0-1.5-.5-1.5-1.4 0-.8.7-1.4 1.6-1.4.8 0 1.3.3 1.3.3v-.2c0-.9-.7-1-1.1-1-.6 0-1.2.4-1.2.4l-.3-.6s.6-.4 1.6-.4c1.1 0 1.7.7 1.7 1.5zm-.8 1.5v-.6s-.4-.3-1.1-.3c-.6 0-1.1.3-1.1.8s.5.8 1 .8c.8 0 1.2-.7 1.2-.7zm5.4-1.5v2.7h-.8v-2.5c0-.7-.4-1-1-1-.7 0-1 .7-1 .7v2.9h-.8V42h.7v.6s.4-.7 1.3-.7 1.6.5 1.6 1.5zm2.1.7v2h-.8v-6.8h.8v4.5l1.8-1.8h1l-1.9 2 2.1 2.2h-1.1l-1.9-2.1zm5.5-2.1h.9v-1.4c0-.9.7-1.3 1.3-1.3.2 0 .5 0 .9.2l-.3.6s-.3-.2-.5-.2c-.4 0-.6.3-.6.7V42h1.1v.7h-1.1v3.5h-.8v-3.5h-.9V42zm7.4 2c0 1.2-.9 2.2-2.1 2.2-1.2 0-2.1-1-2.1-2.2 0-1.2.9-2.2 2.1-2.2 1.2.1 2.1 1 2.1 2.2zm-.8 0c0-.8-.5-1.5-1.4-1.5s-1.4.7-1.4 1.5.5 1.5 1.4 1.5 1.4-.6 1.4-1.5zm4.1-2l-.3.7s-.2-.1-.5-.1c-.7 0-1 .7-1 .7v2.9h-.8V42h.7v.6s.4-.7 1.2-.7c.4 0 .7.1.7.1zm7.3 2c0 1.2-.9 2.2-2 2.2-1 0-1.4-.7-1.4-.7v.6h-.7v-6.8h.8v3.2s.4-.6 1.3-.6c1.1 0 2 .9 2 2.1zm-3.4.8s.4.7 1.2.7c.8 0 1.4-.7 1.4-1.5s-.5-1.5-1.4-1.5-1.2.7-1.2.7v1.6zm8-.7v.2h-3.4c0 .6.6 1.2 1.4 1.2.8 0 1.3-.6 1.3-.6l.5.5s-.6.8-1.7.8c-1.3 0-2.2-1-2.2-2.2 0-1.2.8-2.2 2.1-2.2 1.2.1 2 .9 2 2.3zm-.7-.4c0-.5-.5-1.1-1.3-1.1-.9 0-1.3.7-1.3 1.1h2.6zm4.6-1.2v-3.2h.8v6.8h-.7v-.6s-.4.7-1.4.7c-1.1 0-2-1-2-2.2 0-1.2.9-2.2 2-2.2.9.1 1.3.7 1.3.7zm0 .8s-.4-.7-1.2-.7-1.4.7-1.4 1.5.5 1.5 1.4 1.5c.8 0 1.2-.7 1.2-.7v-1.6zm4.5-1.3l-.3.7s-.2-.1-.5-.1c-.7 0-1 .7-1 .7v2.9h-.8V42h.7v.6s.4-.7 1.2-.7c.5 0 .7.1.7.1zm1.1-1.9c.3 0 .5.2.5.5s-.2.5-.5.5-.5-.2-.5-.5c0-.2.2-.5.5-.5zm-.4 1.9h.8v4.2h-.8V42zm1.6 0h.9v-1.4c0-.9.7-1.3 1.3-1.3.2 0 .5 0 .9.2l-.3.6s-.3-.2-.5-.2c-.4 0-.6.3-.6.7V42h1.1v.7h-1.1v3.5h-.8v-3.5h-.9V42zm3.1 0h.8v-1.3h.8V42h1.3v.7h-1.3v2.2c0 .4.2.6.6.6.2 0 .5-.2.5-.2l.3.6c-.4.2-.6.3-.9.3-.6 0-1.3-.4-1.3-1.3v-2.3h-.8V42zm7.5 2.1v.2h-3.4c0 .6.6 1.2 1.4 1.2.8 0 1.3-.6 1.3-.6l.5.5s-.6.8-1.7.8c-1.3 0-2.2-1-2.2-2.2 0-1.2.8-2.2 2.1-2.2 1.2.1 2 .9 2 2.3zm-.7-.4c0-.5-.5-1.1-1.3-1.1-.9 0-1.3.7-1.3 1.1h2.6zm4-1.7l-.3.7s-.2-.1-.5-.1c-.7 0-1 .7-1 .7v2.9h-.8V42h.7v.6s.4-.7 1.2-.7c.5 0 .7.1.7.1z"/></g></svg>